3634e03f106db1da796059bde3258efc *tests/data/fate/amrwb-remux.amr
31241 tests/data/fate/amrwb-remux.amr
#tb 0: 1/16000
#media_type 0: audio
#codec_id 0: amr_wb
#sample_rate 0: 16000
#channel_layout_name 0: mono
0,          0,          0,      320,       61, 0xc8891fe9
0,        320,        320,      320,       61, 0xc2562027
0,        640,        640,      320,       61, 0xe46e207f
0,        960,        960,      320,       61, 0xa27a1c46
0,       1280,       1280,      320,       61, 0xf1d42007
0,       1600,       1600,      320,       61, 0x50d61af4
0,       1920,       1920,      320,       61, 0xbacf1eef
0,       2240,       2240,      320,       61, 0xbd691d7b
0,       2560,       2560,      320,       61, 0xfd1323a2
0,       2880,       2880,      320,       61, 0x7ca01f0e
0,       3200,       3200,      320,       61, 0x2f812276
0,       3520,       3520,      320,       61, 0xaef41ca8
0,       3840,       3840,      320,       61, 0x2560211f
0,       4160,       4160,      320,       61, 0xd6ad1fd4
0,       4480,       4480,      320,       61, 0x87d81d18
0,       4800,       4800,      320,       61, 0x11531a44
0,       5120,       5120,      320,       61, 0x83011d4f
0,       5440,       5440,      320,       61, 0xca39211f
0,       5760,       5760,      320,       61, 0xa0031e8d
0,       6080,       6080,      320,       61, 0x0b8a1980
0,       6400,       6400,      320,       61, 0xd2931e62
0,       6720,       6720,      320,       61, 0x0f7820fd
0,       7040,       7040,      320,       61, 0xcc8c2149
0,       7360,       7360,      320,       61, 0x29f82236
0,       7680,       7680,      320,       61, 0xf7a71f9c
0,       8000,       8000,      320,       61, 0xa64f1cba
0,       8320,       8320,      320,       61, 0x685321c1
0,       8640,       8640,      320,       61, 0x48002221
0,       8960,       8960,      320,       61, 0xef0a1f53
0,       9280,       9280,      320,       61, 0x31e321a0
0,       9600,       9600,      320,       61, 0xb49f1ead
0,       9920,       9920,      320,       61, 0xe5bb1f9d
0,      10240,      10240,      320,       61, 0xc5971d19
0,      10560,      10560,      320,       61, 0x33182328
0,      10880,      10880,      320,       61, 0xb791204e
0,      11200,      11200,      320,       61, 0x5db81bd8
0,      11520,      11520,      320,       61, 0x9f171da7
0,      11840,      11840,      320,       61, 0xec4a1974
0,      12160,      12160,      320,       61, 0x980620e1
0,      12480,      12480,      320,       61, 0x74cf1d0c
0,      12800,      12800,      320,       61, 0xea761ef7
0,      13120,      13120,      320,       61, 0xa1da1cc7
0,      13440,      13440,      320,       61, 0x68741b28
0,      13760,      13760,      320,       61, 0x87991cee
0,      14080,      14080,      320,       61, 0x955f1d0f
0,      14400,      14400,      320,       61, 0x8eea1e69
0,      14720,      14720,      320,       61, 0xadb21ede
0,      15040,      15040,      320,       61, 0xace61e29
0,      15360,      15360,      320,       61, 0x67441c17
0,      15680,      15680,      320,       61, 0x7f1b1e7c
